<svg width="64" height="64" viewBox="0 0 64 64" fill="none" xmlns="http://www.w3.org/2000/svg">
<path d="M28 33.18L22.82 28L20 30.82L28 38.82L44 22.82L41.18 20L28 33.18Z" fill="#6E5A41"/>
<path d="M32 60L19.648 53.414C16.1264 51.541 13.1814 48.7441 11.1293 45.3238C9.07714 41.9034 7.99534 37.9887 8.00002 34V8C8.00002 6.93913 8.42144 5.92172 9.17159 5.17157C9.92173 4.42143 10.9391 4 12 4H52C53.0609 4 54.0783 4.42143 54.8284 5.17157C55.5786 5.92172 56 6.93913 56 8V34C56.0047 37.9887 54.9229 41.9034 52.8707 45.3238C50.8186 48.7441 47.8736 51.541 44.352 53.414L32 60ZM12 8V34C11.9978 37.2634 12.8838 40.4658 14.563 43.264C16.2422 46.0623 18.6513 48.3507 21.532 49.884L32 55.466L42.468 49.886C45.349 48.3525 47.7583 46.0638 49.4376 43.2652C51.1168 40.4666 52.0026 37.2637 52 34V8H12Z" fill="#6E5A41"/>
</svg>
