<svg width="37" height="26" viewBox="0 0 37 26" fill="none" xmlns="http://www.w3.org/2000/svg">
<path d="M25.4404 6.06299V12.4858C25.4395 12.4971 25.4282 12.77 25.4746 13.1567C25.5226 13.5558 25.6338 14.0954 25.8896 14.6548V14.6558C26.3709 15.7187 27.4646 17.0065 29.8154 17.3276L29.835 17.3306L29.8555 17.3315L30.1182 17.3462L30.1318 17.3472H30.9648L30.9785 17.3462L31.2412 17.3315L31.2607 17.3306L31.2812 17.3276C33.4832 17.0262 34.5766 15.871 35.1035 14.8579L35.2021 14.6577C35.4588 14.0955 35.5702 13.5517 35.6182 13.1519C35.6423 12.951 35.651 12.7831 35.6533 12.6636C35.6545 12.6041 35.654 12.5563 35.6533 12.522C35.653 12.5048 35.6528 12.4902 35.6523 12.48C35.6522 12.4753 35.6515 12.4714 35.6514 12.4683V6.06689H35.752V6.10986H35.7607C35.7679 8.47602 35.7766 11.8707 35.7598 12.812V12.8228C35.7634 14.0179 35.7705 16.0285 35.7705 19.2046C35.7705 21.7534 34.6678 23.0674 33.6045 23.7651C33.0608 24.1219 32.5132 24.325 32.1006 24.439C31.8952 24.4957 31.7255 24.5299 31.6094 24.5493C31.5514 24.559 31.507 24.5653 31.4785 24.5688C31.4704 24.5699 31.4635 24.5702 31.458 24.5708H25.3477V24.52H26.3516C26.4607 24.5202 26.6631 24.5208 27.0186 24.521H31.5381L31.5889 24.5103C33.7679 24.0525 34.8204 22.7104 35.3076 21.4849C35.5476 20.8813 35.6502 20.3099 35.6934 19.8911C35.715 19.6811 35.7222 19.507 35.7236 19.3833C35.7243 19.3217 35.7236 19.272 35.7227 19.2368C35.7223 19.2245 35.721 19.2134 35.7207 19.2046V14.3931L34.8223 15.5796C34.6036 15.8684 34.3333 16.1373 33.998 16.3608L33.8506 16.4536C33.1596 16.865 32.6735 17.0783 32.2822 17.2007C31.8923 17.3227 31.5782 17.3614 31.1973 17.4067H31.1904L31.1895 17.4077C31.1165 17.4165 31.0263 17.4272 30.9346 17.4399H30.1904L30.0986 17.4292L29.9121 17.4067H29.9131C29.531 17.3613 29.2146 17.323 28.8232 17.2007C28.4306 17.0779 27.9439 16.8643 27.2529 16.4536C26.4478 15.9745 25.9773 15.2345 25.7021 14.5347C25.4268 13.8341 25.361 13.2066 25.3467 13.0103V13.0093L25.333 12.0845C25.3302 11.5813 25.3289 10.9116 25.3291 10.1606C25.3295 8.84273 25.335 7.30526 25.3398 6.06299H25.4404ZM26.666 24.02C26.6499 24.0799 26.6285 24.1358 26.6025 24.187C26.6157 24.134 26.626 24.0782 26.6279 24.02C26.6403 24.02 26.653 24.02 26.666 24.02Z" stroke="#D7C2AB"/>
<path d="M16.3089 17.4161C18.597 17.4161 20.6009 16.17 21.6794 14.3227H20.4078C19.4642 15.5579 17.9776 16.3558 16.3052 16.3558C13.6418 16.3558 11.4447 14.33 11.1751 11.7395C19.7265 11.7358 22.4956 11.7249 22.4956 11.7249C22.4956 11.7249 22.4956 11.7176 22.4956 11.7103H22.4992C22.5138 11.5427 22.5211 11.3715 22.5211 11.1966C22.5211 7.76801 19.7301 4.97705 16.3016 4.97705C12.873 4.97705 10.082 7.76801 10.082 11.1966C10.082 14.6252 12.873 17.4161 16.3016 17.4161H16.3089ZM16.3089 6.03732C18.9978 6.03732 21.2094 8.10321 21.4462 10.7338H11.1715C11.4083 8.10685 13.6199 6.03732 16.3089 6.03732Z" fill="url(#paint0_linear_2_407)"/>
<path d="M1.22059 11.3352L8.0996 17.2559H9.69911L2.56141 11.0692L9.09428 5.10835H7.5895L1.2133 10.8032C1.20601 3.39951 1.19508 0.929199 1.19508 0.929199H0V17.2741H1.21694C1.21694 15.0224 1.21694 13.0549 1.21694 11.3388L1.22059 11.3352Z" fill="url(#paint1_linear_2_407)"/>
<defs>
<linearGradient id="paint0_linear_2_407" x1="106.137" y1="-42.9975" x2="-171.913" y2="124.762" gradientUnits="userSpaceOnUse">
<stop stop-color="#F5E5D5"/>
<stop offset="0.12" stop-color="#F3E2D2"/>
<stop offset="0.2" stop-color="#ECDBC9"/>
<stop offset="0.26" stop-color="#E2CFBA"/>
<stop offset="0.32" stop-color="#D3BEA5"/>
<stop offset="0.38" stop-color="#C0A88A"/>
<stop offset="0.43" stop-color="#A88E69"/>
<stop offset="0.45" stop-color="#A0845D"/>
<stop offset="0.46" stop-color="#937955"/>
<stop offset="0.5" stop-color="#826B4C"/>
<stop offset="0.54" stop-color="#766145"/>
<stop offset="0.61" stop-color="#6F5B42"/>
<stop offset="0.78" stop-color="#6E5A41"/>
<stop offset="0.84" stop-color="#715D43"/>
<stop offset="0.9" stop-color="#7D664B"/>
<stop offset="0.96" stop-color="#907658"/>
<stop offset="1" stop-color="#A18464"/>
</linearGradient>
<linearGradient id="paint1_linear_2_407" x1="102.147" y1="-49.6104" x2="-175.903" y2="118.153" gradientUnits="userSpaceOnUse">
<stop stop-color="#F5E5D5"/>
<stop offset="0.12" stop-color="#F3E2D2"/>
<stop offset="0.2" stop-color="#ECDBC9"/>
<stop offset="0.26" stop-color="#E2CFBA"/>
<stop offset="0.32" stop-color="#D3BEA5"/>
<stop offset="0.38" stop-color="#C0A88A"/>
<stop offset="0.43" stop-color="#A88E69"/>
<stop offset="0.45" stop-color="#A0845D"/>
<stop offset="0.46" stop-color="#937955"/>
<stop offset="0.5" stop-color="#826B4C"/>
<stop offset="0.54" stop-color="#766145"/>
<stop offset="0.61" stop-color="#6F5B42"/>
<stop offset="0.78" stop-color="#6E5A41"/>
<stop offset="0.84" stop-color="#715D43"/>
<stop offset="0.9" stop-color="#7D664B"/>
<stop offset="0.96" stop-color="#907658"/>
<stop offset="1" stop-color="#A18464"/>
</linearGradient>
</defs>
</svg>
