<svg width="48" height="48" viewBox="0 0 48 48" fill="none" xmlns="http://www.w3.org/2000/svg">
<path d="M23.9999 7.2002C18.7055 7.2002 14.3999 11.5058 14.3999 16.8002C14.3999 17.1185 14.5263 17.4237 14.7514 17.6487C14.9764 17.8738 15.2816 18.0002 15.5999 18.0002C15.9182 18.0002 16.2234 17.8738 16.4484 17.6487C16.6735 17.4237 16.7999 17.1185 16.7999 16.8002C16.7999 12.8306 20.0303 9.6002 23.9999 9.6002C27.9695 9.6002 31.1999 12.8306 31.1999 16.8002C31.1999 19.7978 29.5391 21.2714 27.4199 23.0882L27.3431 23.153C25.2815 24.9218 22.7999 27.0482 22.7999 31.2002V32.4002C22.7999 32.7185 22.9263 33.0237 23.1514 33.2487C23.3764 33.4738 23.6816 33.6002 23.9999 33.6002C24.3182 33.6002 24.6234 33.4738 24.8484 33.2487C25.0735 33.0237 25.1999 32.7185 25.1999 32.4002V31.2002C25.1999 28.2026 26.8607 26.729 28.9799 24.9122L29.0567 24.8474C31.1207 23.0762 33.5999 20.9546 33.5999 16.8002C33.5999 11.5058 29.2943 7.2002 23.9999 7.2002ZM23.9999 40.8002C24.4773 40.8002 24.9351 40.6106 25.2727 40.273C25.6103 39.9354 25.7999 39.4776 25.7999 39.0002C25.7999 38.5228 25.6103 38.065 25.2727 37.7274C24.9351 37.3898 24.4773 37.2002 23.9999 37.2002C23.5225 37.2002 23.0647 37.3898 22.7271 37.7274C22.3895 38.065 22.1999 38.5228 22.1999 39.0002C22.1999 39.4776 22.3895 39.9354 22.7271 40.273C23.0647 40.6106 23.5225 40.8002 23.9999 40.8002Z" fill="url(#paint0_linear_42_14)"/>
<defs>
<linearGradient id="paint0_linear_42_14" x1="14.3999" y1="7.2002" x2="43.3476" y2="23.7417" gradientUnits="userSpaceOnUse">
<stop stop-color="#F5E5D5"/>
<stop offset="1" stop-color="#6E5A41"/>
</linearGradient>
</defs>
</svg>
